<?xml version="1.0" encoding="UTF-8" standalone="no"?>
<!-- Created with Inkscape (http://www.inkscape.org/) -->

<svg
   width="297mm"
   height="210mm"
   viewBox="0 0 297 210"
   version="1.1"
   id="svg1"
   xml:space="preserve"
   inkscape:version="1.4 (86a8ad7, 2024-10-11)"
   sodipodi:docname="Игровое поле.svg"
   xmlns:inkscape="http://www.inkscape.org/namespaces/inkscape"
   xmlns:sodipodi="http://sodipodi.sourceforge.net/DTD/sodipodi-0.dtd"
   xmlns:xlink="http://www.w3.org/1999/xlink"
   xmlns="http://www.w3.org/2000/svg"
   xmlns:svg="http://www.w3.org/2000/svg"><sodipodi:namedview
     id="namedview1"
     pagecolor="#ffffff"
     bordercolor="#000000"
     borderopacity="0.25"
     inkscape:showpageshadow="2"
     inkscape:pageopacity="0.0"
     inkscape:pagecheckerboard="0"
     inkscape:deskcolor="#d1d1d1"
     inkscape:document-units="mm"
     inkscape:zoom="0.71685827"
     inkscape:cx="802.11114"
     inkscape:cy="214.82629"
     inkscape:window-width="2560"
     inkscape:window-height="1351"
     inkscape:window-x="-9"
     inkscape:window-y="-9"
     inkscape:window-maximized="1"
     inkscape:current-layer="layer1" /><defs
     id="defs1"><rect
       x="167.68748"
       y="11.343564"
       width="56.224622"
       height="59.677014"
       id="rect1" /><rect
       x="167.68748"
       y="11.343564"
       width="56.224621"
       height="59.677013"
       id="rect1-1" /><rect
       x="167.68748"
       y="11.343564"
       width="56.224621"
       height="59.677013"
       id="rect1-1-1" /><rect
       x="167.68748"
       y="11.343564"
       width="56.224621"
       height="59.677013"
       id="rect1-1-1-2" /><rect
       x="167.68748"
       y="11.343564"
       width="56.224621"
       height="59.677013"
       id="rect1-8" /><rect
       x="167.68748"
       y="11.343564"
       width="56.224621"
       height="59.677013"
       id="rect1-8-0" /><rect
       x="167.68748"
       y="11.343564"
       width="56.224621"
       height="59.677013"
       id="rect1-8-9" /><rect
       x="167.68748"
       y="11.343564"
       width="56.224621"
       height="59.677013"
       id="rect1-8-93" /><filter
       style="color-interpolation-filters:sRGB;"
       inkscape:label="Greyscale"
       id="filter1"
       x="0"
       y="0"
       width="1"
       height="1"><feColorMatrix
         values="0.25 0 0 0 0.75 0 0.25 0 0 0.75 0 0 0.25 0 0.75 0 0 0 1 0"
         id="feColorMatrix1"
         result="fbSourceGraphic" /><feColorMatrix
         result="fbSourceGraphicAlpha"
         in="fbSourceGraphic"
         values="0 0 0 -1 0 0 0 0 -1 0 0 0 0 -1 0 0 0 0 1 0"
         id="feColorMatrix2" /><feColorMatrix
         id="feColorMatrix3"
         values="0.21 0.72 0.072 0 0 0.21 0.72 0.072 0 0 0.21 0.72 0.072 0 0 0 0 0 1 0 "
         in="fbSourceGraphic" /></filter><rect
       x="167.68748"
       y="11.343564"
       width="218.24032"
       height="66.828391"
       id="rect1-1-1-2-7" /><rect
       x="167.68748"
       y="11.343564"
       width="218.24033"
       height="66.828392"
       id="rect1-1-1-2-7-8" /><rect
       x="167.68748"
       y="11.343564"
       width="218.24033"
       height="66.828392"
       id="rect1-1-1-2-7-2" /><rect
       x="167.68748"
       y="11.343564"
       width="218.24033"
       height="66.828392"
       id="rect1-1-1-2-7-8-6" /><rect
       x="167.68748"
       y="11.343564"
       width="218.24033"
       height="66.828392"
       id="rect1-1-1-2-7-8-6-0" /></defs><g
     inkscape:label="Слой 1"
     inkscape:groupmode="layer"
     id="layer1"><image
       width="190"
       height="190"
       preserveAspectRatio="none"
       xlink:href="../LowPoly/%D0%9F%D0%BE%D0%BB%D0%B5%204x4.png"
       id="image1"
       x="32.259895"
       y="25.820839"
       style="filter:url(#filter1)" /><path
       style="opacity:1;fill:none;stroke:#000000;stroke-width:2;stroke-linecap:round;stroke-linejoin:round"
       d="M 32.259894,25.820839 V 9.3954305"
       id="path1" /><path
       style="fill:none;stroke:#000000;stroke-width:2;stroke-linecap:round;stroke-linejoin:round"
       d="M 32.259894,25.820839 H 15.834486"
       id="path1-1" /><path
       style="fill:none;stroke:#000000;stroke-width:2;stroke-linecap:round;stroke-linejoin:round"
       d="M 31.259895,75.637694 H 14.834487"
       id="path1-1-7" /><path
       style="fill:none;stroke:#000000;stroke-width:2;stroke-linecap:round;stroke-linejoin:round"
       d="M 82.223123,24.820839 V 8.3954306"
       id="path1-4" /><path
       style="fill:none;stroke:#000000;stroke-width:2;stroke-linecap:round;stroke-linejoin:round"
       d="M 127.7333,24.820839 V 8.3954309"
       id="path1-7" /><path
       style="fill:none;stroke:#000000;stroke-width:2;stroke-linecap:round;stroke-linejoin:round"
       d="M 173.17516,24.820839 V 8.3954309"
       id="path1-2" /><path
       style="fill:none;stroke:#000000;stroke-width:2;stroke-linecap:round;stroke-linejoin:round"
       d="M 221.2599,24.820839 V 8.3954309"
       id="path1-42" /><path
       style="fill:none;stroke:#000000;stroke-width:2;stroke-linecap:round;stroke-linejoin:round"
       d="M 31.259895,120.59619 H 14.834487"
       id="path1-1-9" /><path
       style="fill:none;stroke:#000000;stroke-width:2;stroke-linecap:round;stroke-linejoin:round"
       d="M 31.259895,165.63386 H 14.834487"
       id="path1-1-5" /><text
       xml:space="preserve"
       transform="matrix(0.26458333,0,0,0.26458333,6.9160808,7.1736188)"
       id="text1"
       style="font-size:48px;line-height:130%;font-family:'Comic Sans MS';-inkscape-font-specification:'Comic Sans MS';text-align:center;writing-mode:lr-tb;direction:ltr;white-space:pre;shape-inside:url(#rect1);display:inline;opacity:1;fill:none;stroke:#000000;stroke-width:7.55906;stroke-linecap:round;stroke-linejoin:round"><tspan
         x="180.7998"
         y="56.477683"
         id="tspan5"><tspan
           style="font-family:Oldtimer;-inkscape-font-specification:Oldtimer;fill:#000000;stroke:none"
           id="tspan4">А</tspan></tspan></text><text
       xml:space="preserve"
       transform="matrix(0.26458333,0,0,0.26458333,-27.758174,40.447136)"
       id="text1-5"
       style="font-size:48px;line-height:130%;font-family:'Comic Sans MS';-inkscape-font-specification:'Comic Sans MS';text-align:center;writing-mode:lr-tb;direction:ltr;white-space:pre;shape-inside:url(#rect1-8);display:inline;fill:none;stroke:#000000;stroke-width:7.55906;stroke-linecap:round;stroke-linejoin:round"><tspan
         x="183.7998"
         y="56.477683"
         id="tspan7"><tspan
           style="font-family:Oldtimer;-inkscape-font-specification:Oldtimer;fill:#000000;stroke:none"
           id="tspan6">1</tspan></tspan></text><text
       xml:space="preserve"
       transform="matrix(0.26458333,0,0,0.26458333,-28.758173,88.730139)"
       id="text1-5-4"
       style="font-size:48px;line-height:130%;font-family:'Comic Sans MS';-inkscape-font-specification:'Comic Sans MS';text-align:center;writing-mode:lr-tb;direction:ltr;white-space:pre;shape-inside:url(#rect1-8-0);display:inline;fill:none;stroke:#000000;stroke-width:7.55906;stroke-linecap:round;stroke-linejoin:round"><tspan
         x="180.7998"
         y="56.477683"
         id="tspan9"><tspan
           style="font-family:Oldtimer;-inkscape-font-specification:Oldtimer;fill:#000000;stroke:none"
           id="tspan8">2</tspan></tspan></text><text
       xml:space="preserve"
       transform="matrix(0.26458333,0,0,0.26458333,-29.551923,132.76119)"
       id="text1-5-0"
       style="font-size:48px;line-height:130%;font-family:'Comic Sans MS';-inkscape-font-specification:'Comic Sans MS';text-align:center;writing-mode:lr-tb;direction:ltr;white-space:pre;shape-inside:url(#rect1-8-9);display:inline;fill:none;stroke:#000000;stroke-width:7.55906;stroke-linecap:round;stroke-linejoin:round"><tspan
         x="180.7998"
         y="56.477683"
         id="tspan11"><tspan
           style="font-family:Oldtimer;-inkscape-font-specification:Oldtimer;fill:#000000;stroke:none"
           id="tspan10">3</tspan></tspan></text><text
       xml:space="preserve"
       transform="matrix(0.26458333,0,0,0.26458333,-29.551923,176.61528)"
       id="text1-5-46"
       style="font-size:48px;line-height:130%;font-family:'Comic Sans MS';-inkscape-font-specification:'Comic Sans MS';text-align:center;writing-mode:lr-tb;direction:ltr;white-space:pre;shape-inside:url(#rect1-8-93);display:inline;fill:none;stroke:#000000;stroke-width:7.55906;stroke-linecap:round;stroke-linejoin:round"><tspan
         x="180.7998"
         y="56.477683"
         id="tspan13"><tspan
           style="font-family:Oldtimer;-inkscape-font-specification:Oldtimer;fill:#000000;stroke:none"
           id="tspan12">4</tspan></tspan></text><text
       xml:space="preserve"
       transform="matrix(0.26458333,0,0,0.26458333,53.919437,7.2213315)"
       id="text1-3"
       style="font-size:48px;line-height:130%;font-family:'Comic Sans MS';-inkscape-font-specification:'Comic Sans MS';text-align:center;writing-mode:lr-tb;direction:ltr;white-space:pre;shape-inside:url(#rect1-1);display:inline;fill:none;stroke:#000000;stroke-width:7.55906;stroke-linecap:round;stroke-linejoin:round"><tspan
         x="180.7998"
         y="56.477683"
         id="tspan15"><tspan
           style="font-family:Oldtimer;-inkscape-font-specification:Oldtimer;fill:#000000;stroke:none"
           id="tspan14">Б</tspan></tspan></text><text
       xml:space="preserve"
       transform="matrix(0.26458333,0,0,0.26458333,99.616408,7.2213315)"
       id="text1-3-3"
       style="font-size:48px;line-height:130%;font-family:'Comic Sans MS';-inkscape-font-specification:'Comic Sans MS';text-align:center;writing-mode:lr-tb;direction:ltr;white-space:pre;shape-inside:url(#rect1-1-1);display:inline;fill:none;stroke:#000000;stroke-width:7.55906;stroke-linecap:round;stroke-linejoin:round"><tspan
         x="180.7998"
         y="56.477683"
         id="tspan17"><tspan
           style="font-family:Oldtimer;-inkscape-font-specification:Oldtimer;fill:#000000;stroke:none"
           id="tspan16">В</tspan></tspan></text><text
       xml:space="preserve"
       transform="matrix(0.26458333,0,0,0.26458333,147.80657,7.2213315)"
       id="text1-3-3-7"
       style="font-size:48px;line-height:130%;font-family:'Comic Sans MS';-inkscape-font-specification:'Comic Sans MS';text-align:center;writing-mode:lr-tb;direction:ltr;white-space:pre;shape-inside:url(#rect1-1-1-2);display:inline;fill:none;stroke:#000000;stroke-width:7.55906;stroke-linecap:round;stroke-linejoin:round"><tspan
         x="180.7998"
         y="56.477683"
         id="tspan19"><tspan
           style="font-family:Oldtimer;-inkscape-font-specification:Oldtimer;fill:#000000;stroke:none"
           id="tspan18">Г</tspan></tspan></text><g
       id="g3"
       transform="matrix(0.78912333,0,0,0.78912333,51.903134,5.111778)"><text
         xml:space="preserve"
         transform="matrix(0.11324875,0,0,0.11324875,227.13442,57.775105)"
         id="text1-3-3-7-8-0"
         style="font-size:48px;line-height:130%;font-family:'Comic Sans MS';-inkscape-font-specification:'Comic Sans MS';text-align:center;writing-mode:lr-tb;direction:ltr;white-space:pre;shape-inside:url(#rect1-1-1-2-7-8);display:inline;fill:none;stroke:#000000;stroke-width:7.55906;stroke-linecap:round;stroke-linejoin:round"><tspan
           x="240.80762"
           y="56.477683"
           id="tspan21"><tspan
             style="font-family:Oldtimer;-inkscape-font-specification:Oldtimer;fill:#000000;stroke:none"
             id="tspan20">ЮГ</tspan></tspan></text><text
         xml:space="preserve"
         transform="matrix(0.11324875,0,0,0.11324875,256.00677,35.496354)"
         id="text1-3-3-7-8-0-7"
         style="font-size:48px;line-height:130%;font-family:'Comic Sans MS';-inkscape-font-specification:'Comic Sans MS';text-align:center;writing-mode:lr-tb;direction:ltr;white-space:pre;shape-inside:url(#rect1-1-1-2-7-8-6);display:inline;fill:none;stroke:#000000;stroke-width:7.55906;stroke-linecap:round;stroke-linejoin:round"><tspan
           x="177.80762"
           y="56.477683"
           id="tspan23"><tspan
             style="font-family:Oldtimer;-inkscape-font-specification:Oldtimer;fill:#000000;stroke:none"
             id="tspan22">ВОСТОК</tspan></tspan></text><text
         xml:space="preserve"
         transform="matrix(0.11324875,0,0,0.11324875,200.66493,35.526612)"
         id="text1-3-3-7-8-0-7-1"
         style="font-size:48px;line-height:130%;font-family:'Comic Sans MS';-inkscape-font-specification:'Comic Sans MS';text-align:center;writing-mode:lr-tb;direction:ltr;white-space:pre;shape-inside:url(#rect1-1-1-2-7-8-6-0);display:inline;fill:none;stroke:#000000;stroke-width:7.55906;stroke-linecap:round;stroke-linejoin:round"><tspan
           x="198.80762"
           y="56.477683"
           id="tspan25"><tspan
             style="font-family:Oldtimer;-inkscape-font-specification:Oldtimer;fill:#000000;stroke:none"
             id="tspan24">ЗАПАД</tspan></tspan></text><path
         style="fill:#000000;stroke-width:0.393988"
         d="m 252.61194,62.314731 c -3.64509,-0.995974 -6.9457,-2.736297 -9.64244,-5.084198 l -0.83395,-0.726064 -1.00176,0.983768 c -0.55097,0.541076 -1.07143,0.983768 -1.15657,0.983768 -0.20998,0 -0.49985,-0.336107 -0.49985,-0.579584 0,-0.110761 0.42313,-0.623218 0.95843,-1.160755 l 0.95844,-0.962438 -0.43491,-0.498919 c -2.62148,-3.007278 -4.31841,-6.138713 -5.29134,-9.764383 -0.29153,-1.086398 -0.23791,-1.315159 0.30827,-1.315159 0.39931,0 0.43429,0.06191 0.78813,1.395044 0.80974,3.050771 2.5617,6.254215 4.83726,8.844894 l 0.52482,0.597499 0.95474,-0.936289 c 0.52512,-0.514954 0.99754,-0.936285 1.04984,-0.936285 0.21431,0 0.55845,0.33963 0.55845,0.551122 0,0.145508 -0.32608,0.554176 -0.91137,1.142183 l -0.91137,0.915613 0.46834,0.415153 c 2.71304,2.404957 6.02669,4.200845 9.32896,5.055988 1.03775,0.268731 1.34949,0.614972 0.93074,1.03373 -0.1821,0.182097 -0.43893,0.193937 -0.98286,0.04531 z m 10.58807,-0.04531 c -0.39835,-0.398353 -0.0952,-0.783697 0.77438,-0.98447 1.78124,-0.411244 4.45537,-1.555657 6.20244,-2.654375 0.97058,-0.610394 2.46643,-1.727137 3.28288,-2.450873 l 0.46834,-0.415153 -0.91137,-0.915613 c -0.58528,-0.588007 -0.91137,-0.996675 -0.91137,-1.142183 0,-0.211492 0.34415,-0.551122 0.55846,-0.551122 0.0523,0 0.52554,0.422143 1.05167,0.938089 l 0.95658,0.938086 0.60993,-0.703541 c 2.27745,-2.627021 3.95411,-5.742053 4.79876,-8.915528 0.27152,-1.020118 0.50793,-1.350839 0.89355,-1.249998 0.36525,0.09551 0.39897,0.425365 0.14137,1.382595 -0.56659,2.105373 -1.63381,4.570089 -2.75362,6.359385 -0.55903,0.893254 -1.72314,2.443967 -2.52652,3.365591 l -0.43491,0.498919 0.95843,0.962438 c 0.59164,0.594106 0.95843,1.04527 0.95843,1.178867 0,0.236137 -0.30012,0.561472 -0.51796,0.561472 -0.0752,0 -0.58749,-0.442452 -1.13846,-0.983228 l -1.00176,-0.983229 -0.6661,0.572678 c -2.85419,2.453863 -6.32472,4.338268 -9.46281,5.138036 -1.02093,0.260194 -1.11936,0.26413 -1.33034,0.05316 z m -5.15807,-6.652782 c -0.0662,-0.07979 -0.58948,-1.662972 -1.16281,-3.518191 -0.57332,-1.855218 -1.20761,-3.90382 -1.40953,-4.55245 l -0.36713,-1.179328 -0.43738,0.254161 c -0.24056,0.139791 -1.62782,0.851207 -3.08278,1.580928 -2.32169,1.164416 -2.67565,1.312971 -2.89273,1.214066 -0.1693,-0.07714 -0.24734,-0.199456 -0.24734,-0.387656 0,-0.151229 0.68018,-1.600171 1.51151,-3.219875 0.83134,-1.6197 1.51152,-2.966918 1.51152,-2.993816 0,-0.02691 -2.04632,-0.678148 -4.54739,-1.44722 -3.70512,-1.139323 -4.57619,-1.44176 -4.7029,-1.632864 -0.35024,-0.528207 -0.20747,-0.592022 4.7029,-2.101953 2.50107,-0.769072 4.54739,-1.420323 4.54739,-1.44722 0,-0.02691 -0.68018,-1.374116 -1.51152,-2.99382 -0.83133,-1.6197 -1.51151,-3.068646 -1.51151,-3.219871 0,-0.188157 0.078,-0.310517 0.2472,-0.387593 0.217,-0.09887 0.58315,0.05563 2.99697,1.26463 1.51238,0.757497 2.89988,1.468287 3.08333,1.579533 l 0.33356,0.202274 0.36671,-1.178001 c 0.2017,-0.647901 0.8358,-2.695906 1.40912,-4.551128 1.27092,-4.560832 1.70887,-4.271117 3.03655,0 0.57333,1.855222 1.20747,3.903353 1.40921,4.551404 l 0.36679,1.178272 0.85469,-0.462534 c 0.47008,-0.254394 1.85716,-0.965479 3.08241,-1.580187 1.95169,-0.979162 2.25847,-1.103651 2.47576,-1.004642 0.16997,0.07744 0.24804,0.199555 0.24804,0.387972 0,0.151225 -0.68019,1.600171 -1.51152,3.219871 -0.83133,1.619704 -1.51152,2.965709 -1.51152,2.991125 0,0.02541 2.04686,0.676666 4.54857,1.44722 6.41227,1.975054 6.41227,1.765153 0,3.740203 -2.50171,0.770557 -4.54857,1.421808 -4.54857,1.447224 0,0.02541 0.68019,1.371421 1.51152,2.991121 0.83133,1.619704 1.51152,3.068646 1.51152,3.219875 0,0.18924 -0.0782,0.310572 -0.25072,0.389193 -0.21442,0.0977 -0.38168,0.04831 -1.1551,-0.341021 -0.9941,-0.500427 -1.14885,-0.667549 -0.99436,-1.073893 0.0884,-0.23248 0.26863,-0.324181 0.54987,-0.279774 0.043,0.0068 0.0782,-0.01131 0.0782,-0.04024 0,-0.201202 -1.92322,-3.700154 -2.03381,-3.700154 -0.24209,0 -1.24594,0.240065 -1.33884,0.320178 -0.049,0.04222 -0.15132,0.37445 -0.22748,0.738294 -0.12916,0.61708 -0.12494,0.675993 0.063,0.876738 0.60692,0.648453 -0.14896,1.157619 -0.98567,0.663948 l -0.36506,-0.215393 -0.36723,1.179639 c -0.20197,0.6488 -0.8363,2.697544 -1.40963,4.552762 -0.57333,1.855219 -1.09659,3.438404 -1.1628,3.518191 -0.0662,0.07978 -0.22618,0.145062 -0.35547,0.145062 -0.1293,0 -0.28926,-0.06528 -0.35547,-0.145062 z m -0.21787,-9.521742 v -5.288615 l -1.18554,1.182184 -1.18555,1.182181 0.25082,1.161579 c 0.22115,1.024191 2.00635,7.051284 2.08855,7.051284 0.0175,0 0.0317,-2.379875 0.0317,-5.288613 z m 2.0849,2.473937 c 0.46812,-1.519269 0.98714,-3.348669 1.15338,-4.065337 l 0.30227,-1.303033 -1.19694,-1.198236 -1.19694,-1.198235 v 5.307132 c 0,2.918923 0.0196,5.28753 0.0436,5.263571 0.0239,-0.02395 0.42656,-1.286595 0.89467,-2.805862 z m -7.79102,-1.835846 c 0.98836,-0.493785 1.80972,-0.909124 1.82524,-0.922972 0.0427,-0.03814 -0.18261,-1.119111 -0.28587,-1.371327 -0.0702,-0.171522 -0.24623,-0.250548 -0.78405,-0.352028 -0.39452,-0.07444 -0.72835,-0.09144 -0.77431,-0.03943 -0.13738,0.155468 -1.89046,3.583549 -1.83258,3.583549 0.03,0 0.8632,-0.404007 1.85157,-0.897788 z m 3.82975,-5.513137 1.19539,-1.198787 h -1.41078 c -1.51493,0 -1.66097,-0.04583 -1.66097,-0.521215 0,-0.475437 0.14597,-0.521214 1.66211,-0.521214 h 1.41194 l -1.21417,-1.214165 -1.21416,-1.21416 -1.1887,0.264811 c -0.65379,0.145645 -2.54379,0.680291 -4.20002,1.188102 l -3.01132,0.923291 2.21326,0.05212 c 1.81393,0.04272 2.23106,0.08033 2.31192,0.208486 0.14529,0.230247 0.12348,0.428789 -0.0707,0.643308 -0.15586,0.17222 -0.37991,0.191655 -2.3194,0.201225 l -2.14688,0.0106 0.93819,0.30603 c 3.2348,1.055163 6.65696,2.014165 7.3508,2.059938 0.0869,0.0058 0.69599,-0.529031 1.35345,-1.188366 z m -3.85174,-1.348849 c -0.16502,-0.19883 -0.0999,-0.688352 0.10894,-0.819018 0.26806,-0.167729 0.70787,-7.88e-4 0.78266,0.297287 0.12522,0.498939 -0.57194,0.906893 -0.8916,0.521731 z m 11.31294,2.283073 c 1.03811,-0.232827 6.90615,-1.980656 7.01985,-2.090898 0.0239,-0.02317 -2.39118,-0.04211 -5.3668,-0.04211 h -5.41023 l 1.19539,1.198787 c 0.65746,0.659335 1.23742,1.198791 1.28878,1.198791 0.0514,0 0.62422,-0.119055 1.27301,-0.264567 z m 4.37034,-4.066141 c -2.72866,-0.853133 -4.45599,-1.326502 -5.31637,-1.456936 l -0.41697,-0.06321 -1.19709,1.205426 -1.19709,1.205426 5.47104,-0.0054 5.47104,-0.0054 z m -9.97945,-7.832335 -0.0279,-2.691536 -0.91252,2.970917 c -0.50189,1.634006 -1.02811,3.48692 -1.16938,4.117584 l -0.25684,1.146671 1.16937,1.174529 1.16937,1.174529 0.0279,-2.60058 c 0.0153,-1.430318 0.0153,-3.811767 0,-5.292114 z m 3.29149,4.411874 c -0.21441,-0.994059 -1.96404,-6.917369 -2.08024,-7.042602 -0.0222,-0.02388 -0.0403,2.34426 -0.0403,5.262556 v 5.30599 l 1.18555,-1.182185 1.18555,-1.182184 z m -8.14568,0.234568 c 0.30382,-0.06345 0.59234,-0.15265 0.64116,-0.198211 0.0862,-0.08044 0.4116,-1.46508 0.35596,-1.514624 -0.0945,-0.08417 -3.65204,-1.826575 -3.67594,-1.800407 -0.0775,0.08491 1.86028,3.628618 1.98423,3.628618 0.0782,0 0.39076,-0.05192 0.69459,-0.115376 z m 12.70195,-1.734934 c 0.51374,-0.989 0.90984,-1.798184 0.88021,-1.798184 -0.10984,0 -3.58096,1.768025 -3.63142,1.849675 -0.0624,0.100971 0.18912,1.361323 0.2925,1.465655 0.10588,0.106853 1.00822,0.315281 1.2854,0.296901 0.19942,-0.01324 0.39472,-0.315171 1.17331,-1.814047 z m -1.33437,14.564664 c -0.3255,-0.130836 -0.33423,-0.77001 -0.0129,-0.941994 0.54183,-0.289979 1.09072,0.474531 0.61643,0.858587 -0.26369,0.213521 -0.27572,0.215184 -0.60356,0.08341 z M 235.79103,33.036802 c 0.54769,-1.918265 1.57434,-4.227408 2.65208,-5.965088 0.51416,-0.82899 1.71007,-2.417546 2.51622,-3.342334 l 0.43491,-0.498919 -0.95844,-0.962438 c -0.59163,-0.594102 -0.95843,-1.045265 -0.95843,-1.178867 0,-0.236133 0.30013,-0.561472 0.51796,-0.561472 0.0752,0 0.58749,0.442697 1.13846,0.983768 l 1.00176,0.983768 0.83395,-0.726064 c 2.28026,-1.98529 5.07161,-3.587505 7.92106,-4.546633 2.17964,-0.733665 2.70098,-0.786309 2.82669,-0.285421 0.0874,0.348372 -0.1736,0.630361 -0.66909,0.722791 -0.81959,0.152891 -3.15974,0.992747 -4.29795,1.54249 -1.85434,0.895637 -3.8437,2.224642 -5.41511,3.61761 l -0.46834,0.415153 0.91137,0.915608 c 0.58529,0.588011 0.91137,0.996675 0.91137,1.142183 0,0.211493 -0.34414,0.551122 -0.55845,0.551122 -0.0523,0 -0.52472,-0.421327 -1.04984,-0.936285 l -0.95474,-0.936285 -0.52482,0.597495 c -2.43872,2.776441 -3.84967,5.451623 -5.06525,9.603772 -0.0717,0.244859 -1.68652,2.160386 -0.74537,-1.135954 z m 44.76767,1.704664 c -0.11673,-0.08176 -0.26175,-0.346304 -0.32225,-0.58787 -0.0605,-0.24157 -0.25358,-0.904123 -0.42906,-1.472349 -0.37109,-1.201687 -0.32608,-1.520813 0.21446,-1.520813 0.34311,0 0.40942,0.0864 0.68007,0.886063 0.39092,1.155043 0.65074,2.298774 0.57111,2.514038 -0.10499,0.283801 -0.44464,0.369832 -0.71433,0.180931 z m -1.72557,-4.758839 c -0.18769,-0.286441 -0.12486,-0.550283 0.1684,-0.707232 0.28807,-0.154168 0.59803,-0.02021 0.67649,0.292359 0.144,0.57376 -0.52541,0.902464 -0.84489,0.414873 z m -1.6503,-2.809473 c -0.43081,-0.645002 -1.1688,-1.633159 -1.64,-2.195908 l -0.85672,-1.023179 -0.96363,0.944996 c -0.52999,0.519749 -1.00642,0.944996 -1.05871,0.944996 -0.21431,0 -0.55846,-0.339629 -0.55846,-0.551122 0,-0.145161 0.32775,-0.55754 0.91213,-1.147663 l 0.91212,-0.921093 -0.52121,-0.465887 c -1.50461,-1.34489 -3.60131,-2.734911 -5.42524,-3.5967 -1.1432,-0.540154 -3.08942,-1.240586 -4.03335,-1.451578 -0.70137,-0.156776 -0.96762,-0.392723 -0.8722,-0.772914 0.10389,-0.413951 0.45282,-0.426527 1.73123,-0.0624 3.20121,0.911795 6.21955,2.524478 8.79596,4.699623 l 1.0805,0.91222 0.92383,-0.928126 c 0.5081,-0.51047 1.00989,-0.95544 1.11508,-0.988827 0.24168,-0.07671 0.59328,0.231204 0.59328,0.51956 0,0.133475 -0.36441,0.582366 -0.95074,1.171145 l -0.95074,0.954712 0.89101,1.059437 c 0.89727,1.06688 1.9745,2.571619 2.30937,3.225879 0.24328,0.475303 0.0914,0.845554 -0.34687,0.845554 -0.2706,0 -0.38797,-0.126671 -1.08664,-1.172729 z"
         id="path3"
         sodipodi:nodetypes="sscsssscssssscsssscsssssssscsssscsssssscsssscsssssscssssssssssssssscsssscssssssssssssssssssssscsssssscccssssscccssssssssssccssscccsscsssscssscsscsssscssssscccccsscsscccssssscccssssssssssssssssssssscsssscsssssscsssscsssssssssssssssscsssscsssssscsssscssss" /><text
         xml:space="preserve"
         transform="matrix(0.11324875,0,0,0.11324875,227.04215,12.688436)"
         id="text1-3-3-7-8-9"
         style="font-size:48px;line-height:130%;font-family:'Comic Sans MS';-inkscape-font-specification:'Comic Sans MS';text-align:center;writing-mode:lr-tb;direction:ltr;white-space:pre;shape-inside:url(#rect1-1-1-2-7-2);display:inline;fill:#ffffff;stroke:#ffffff;stroke-width:17.6602;stroke-linecap:round;stroke-linejoin:round"><tspan
           x="201.80762"
           y="56.477683"
           id="tspan28"><tspan
             style="font-family:Oldtimer;-inkscape-font-specification:Oldtimer"
             id="tspan26">C</tspan><tspan
             style="font-family:Oldtimer;-inkscape-font-specification:Oldtimer"
             id="tspan27">ЕВЕР</tspan></tspan></text><text
         xml:space="preserve"
         transform="matrix(0.11324875,0,0,0.11324875,227.04215,12.688436)"
         id="text1-3-3-7-8"
         style="font-size:48px;line-height:130%;font-family:'Comic Sans MS';-inkscape-font-specification:'Comic Sans MS';text-align:center;writing-mode:lr-tb;direction:ltr;white-space:pre;shape-inside:url(#rect1-1-1-2-7);display:inline;fill:none;stroke:#000000;stroke-width:7.55906;stroke-linecap:round;stroke-linejoin:round"><tspan
           x="201.80762"
           y="56.477683"
           id="tspan31"><tspan
             style="font-family:Oldtimer;-inkscape-font-specification:Oldtimer;fill:#000000;stroke:none"
             id="tspan29">C</tspan><tspan
             style="font-family:Oldtimer;-inkscape-font-specification:Oldtimer;fill:#000000;stroke:none"
             id="tspan30">ЕВЕР</tspan></tspan></text></g></g></svg>
